# xmcd CD database file
#
# Track frame offsets:
#	150
#	13425
#	26628
#	41406
#	57896
#	71604
#	86209
#	102877
#	119827
#	135074
#	153954
#	169546
#
# Disc length: 2480 seconds
#
# Revision: 0
# Processed by: cddbd v1.5.1PL0 Copyright (c) Steve Scherf et al.
# Submitted via: CDex 1.51
#
DISCID=9a09ae0c
DTITLE=Tiao Carreiro and Pardinho - Modas de Viola
DYEAR=1900
DGENRE=Blues
TTITLE0=Rei do Gado
TTITLE1=Boiadeiro Punho de Aco
TTITLE2=Boi Soberano
TTITLE3=As Tres Cuiabanas
TTITLE4=O Mineiro e o Italiano
TTITLE5=Heroi sem Medalha
TTITLE6=Ferreirinha
TTITLE7=Catimbau
TTITLE8=Travessia do Araguaia
TTITLE9=A Volta que o Mundo da
TTITLE10=Preto Inocente
TTITLE11=Terra Roxa
EXTD=
EXTT0=
EXTT1=
EXTT2=
EXTT3=
EXTT4=
EXTT5=
EXTT6=
EXTT7=
EXTT8=
EXTT9=
EXTT10=
EXTT11=
PLAYORDER=
